Coordinates
version=1
nRows=29
nColumns=24
inDegrees=yes

Units are S.I. units (second, meters, Newtons, ...)
Angles are in degrees.

endheader
time	pelvis_tilt	pelvis_list	pelvis_rotation	pelvis_tx	pelvis_ty	pelvis_tz	hip_flexion_r	hip_adduction_r	hip_rotation_r	knee_angle_r	ankle_angle_r	subtalar_angle_r	mtp_angle_r	hip_flexion_l	hip_adduction_l	hip_rotation_l	knee_angle_l	ankle_angle_l	subtalar_angle_l	mtp_angle_l	lumbar_extension	lumbar_bending	lumbar_rotation
      3.67000000	     -7.68269971	     -1.27835318	     -5.39971453	     -1.27105429	     -0.03820882	     -0.30613409	     -7.41421467	      3.22371762	      2.96212532	    -19.90648039	      7.13352096	     14.03643925	     20.70780776	     35.57009137	     -3.20288827	     -0.62531758	    -13.27987403	      8.17527026	     17.35440011	    -13.23579597	      8.03673268	      2.24350834	      4.46949270
      3.67500000	     -7.73832070	     -1.02114095	     -5.57606715	     -1.26339563	     -0.03917185	     -0.30631806	     -7.43922465	      2.78536015	      2.89524662	    -20.63777588	      6.72260801	     14.59143230	     21.13255012	     35.62939172	     -2.94838804	     -0.70545695	    -14.07198614	      7.49873444	     17.05238829	    -13.00140114	      8.23517287	      1.86400669	      4.59687745
      3.68000000	     -7.78368375	     -0.76248675	     -5.65738272	     -1.25578573	     -0.04009913	     -0.30674440	     -7.41577152	      2.29547381	      2.48732540	    -21.43708007	      6.25380972	     15.52252993	     21.93737842	     35.69831305	     -2.62561959	     -0.70908633	    -14.85792397	      6.57249656	     16.57494051	    -12.50583770	      8.40856641	      1.47937915	      4.58913976
      3.68500000	     -7.74439134	     -0.53649056	     -5.61657540	     -1.24820207	     -0.04079468	     -0.30724476	     -7.52283460	      1.85436846	      2.04132364	    -22.08182323	      5.30844142	     16.08958014	     23.55237559	     35.64598121	     -2.25598195	     -0.51965788	    -15.48876526	      5.06043735	     15.76988378	    -10.90660073	      8.47827346	      1.07730774	      4.39531367
      3.69000000	     -7.87619027	     -0.22772142	     -5.77861845	     -1.24067288	     -0.04157077	     -0.30747991	     -7.33172132	      1.33562813	      1.90173587	    -22.97860620	      4.71594324	     16.88470936	     24.03571006	     35.84632470	     -1.98410524	     -0.83034966	    -16.36273926	      4.07669700	     15.29093083	    -10.73349105	      8.73727743	      0.63672034	      4.47085705
      3.69500000	     -7.90906747	      0.10117640	     -5.67757160	     -1.23315653	     -0.04216248	     -0.30803276	     -7.25180564	      0.77041863	      1.26587692	    -23.78389029	      3.71386193	     17.58619728	     25.54264697	     35.92363273	     -1.50350655	     -0.70583655	    -17.08715561	      2.59893272	     14.34523212	     -9.87211810	      8.87434742	      0.10946896	      4.27389947
      3.70000000	     -8.08281450	      0.46788350	     -5.79752910	     -1.22564529	     -0.04272248	     -0.30824634	     -6.92628994	      0.18007458	      1.01031351	    -24.77755215	      2.85259184	     18.40533121	     26.04550269	     36.17858971	     -1.18270252	     -1.05303628	    -17.96632323	      1.58339195	     13.76634859	     -9.96273203	      9.18094536	     -0.41203261	      4.33483794
      3.70500000	     -8.13293293	      0.79621468	     -5.65925554	     -1.21818791	     -0.04312544	     -0.30888552	     -6.75612675	     -0.41483607	      0.29094802	    -25.64817280	      1.56160599	     19.19127512	     27.70682414	     36.30629349	     -0.68028577	     -0.89328555	    -18.78600565	      0.33738468	     12.69305017	     -9.86470407	      9.31999248	     -0.93657957	      4.15496034
      3.71000000	     -8.30236309	      1.17460215	     -5.70247998	     -1.21081838	     -0.04355170	     -0.30924067	     -6.34351238	     -1.04377324	     -0.07229298	    -26.73529581	      0.45563899	     20.06479529	     28.51497168	     36.58311410	     -0.29548192	     -1.13310167	    -19.69700884	     -0.63717390	     11.90072197	    -10.17621126	      9.58998171	     -1.47890489	      4.14724498
      3.71500000	     -8.45805826	      1.59415401	     -5.67244789	     -1.20327524	     -0.04386746	     -0.30967679	     -5.93474957	     -1.73350487	     -0.57298262	    -27.81616627	     -0.91527235	     20.87159603	     29.49598795	     36.78046102	      0.19611809	     -1.14758767	    -20.51398719	     -1.51849810	     10.96411625	    -10.64418614	      9.88010735	     -2.08058072	      4.04711377
      3.72000000	     -8.43707270	      1.88215578	     -5.56623118	     -1.19598528	     -0.04399236	     -0.31030130	     -5.70995427	     -2.32052823	     -1.19010194	    -28.80167669	     -2.71940244	     21.52366161	     31.50264022	     36.81206491	      0.65571196	     -0.93790003	    -21.38241162	     -2.20044010	      9.99079303	    -11.40594125	      9.89910415	     -2.55351384	      3.91430888
      3.72500000	     -8.53218118	      2.27515922	     -5.51465533	     -1.18848823	     -0.04414892	     -0.31075991	     -5.31027426	     -2.99160561	     -1.63341319	    -29.89665976	     -4.50370583	     22.09801664	     32.81846377	     36.91428974	      1.14412126	     -0.91375504	    -22.18853838	     -2.71004027	      9.23492840	    -12.17714978	     10.10414853	     -3.11690409	      3.88479108
      3.73000000	     -8.66242299	      2.68881605	     -5.56398644	     -1.18105767	     -0.04431851	     -0.31111777	     -4.77907904	     -3.67937978	     -1.86511998	    -31.16201919	     -6.14930755	     22.77169579	     33.32546894	     37.02009419	      1.58796549	     -1.00625424	    -22.93054135	     -3.19727464	      8.46275298	    -12.63702917	     10.35050368	     -3.67583186	      3.93064894
      3.73500000	     -8.62856098	      3.02126609	     -5.47887316	     -1.17366910	     -0.04433016	     -0.31173202	     -4.45510720	     -4.32537241	     -2.33495152	    -32.28290449	     -8.27562384	     23.26687744	     34.94852411	     36.91294612	      2.10612272	     -0.73242957	    -23.63990329	     -3.39564658	      7.68000281	    -13.39911868	     10.38487976	     -4.16998649	      3.85678997
      3.74000000	     -8.73260684	      3.41632184	     -5.53295321	     -1.16632625	     -0.04445849	     -0.31217194	     -3.85985930	     -5.00379614	     -2.49704163	    -33.64322595	    -10.10416196	     23.81724235	     35.27689134	     36.91644367	      2.56623462	     -0.73207968	    -24.26479508	     -3.61851829	      6.97284807	    -13.67075958	     10.59401484	     -4.67458656	      3.92130082
      3.74500000	     -8.77145143	      3.79441870	     -5.52626524	     -1.15911903	     -0.04451955	     -0.31272385	     -3.30175874	     -5.68170080	     -2.74063926	    -35.01143611	    -12.07733299	     24.28478936	     35.85661360	     36.80981178	      3.08699439	     -0.53538355	    -24.80970311	     -3.76689881	      6.24173954	    -13.88615650	     10.70130370	     -5.17143833	      3.96958387
      3.75000000	     -8.81684940	      4.19501532	     -5.54129633	     -1.15190083	     -0.04455327	     -0.31321961	     -2.69595391	     -6.36246405	     -2.89040200	    -36.41521807	    -14.07785798	     24.54417242	     36.21113353	     36.66289750	      3.61337726	     -0.41023884	    -25.27696902	     -3.79662891	      5.61399786	    -13.92081064	     10.83483247	     -5.67838177	      4.03831506
      3.75500000	     -8.86965070	      4.59932728	     -5.55604950	     -1.14477118	     -0.04457573	     -0.31372296	     -2.03192012	     -7.03480465	     -2.99250246	    -37.87265036	    -16.04479371	     24.67776379	     36.33629381	     36.48842122	      4.15138806	     -0.27848454	    -25.67578526	     -3.75425944	      5.02110422	    -13.82503925	     10.97206890	     -6.17817168	      4.10947084
      3.76000000	     -8.93338193	      5.01927067	     -5.57270402	     -1.13768554	     -0.04456271	     -0.31419521	     -1.31236380	     -7.70169967	     -3.03620142	    -39.37051388	    -17.96154861	     24.63801490	     36.20240351	     36.28389094	      4.70420432	     -0.16698083	    -25.99968068	     -3.62036902	      4.47993616	    -13.66686981	     11.13251242	     -6.68640730	      4.17524406
      3.76500000	     -9.01681281	      5.44719089	     -5.58985831	     -1.13076092	     -0.04455213	     -0.31472755	     -0.50268538	     -8.37984054	     -3.08133471	    -40.93586139	    -19.80033323	     24.48095932	     35.95300362	     36.07708988	      5.27751729	     -0.03512651	    -26.26261625	     -3.46311283	      3.90029840	    -13.46872077	     11.29843102	     -7.18057598	      4.26836827
      3.77000000	     -9.07330710	      5.88144293	     -5.58296709	     -1.12393966	     -0.04446928	     -0.31523343	      0.31808029	     -9.05316175	     -3.15103807	    -42.53042279	    -21.56591546	     24.07552520	     35.53287076	     35.82309317	      5.85850648	      0.04069541	    -26.48622425	     -3.19586418	      3.48084345	    -13.29409763	     11.42414443	     -7.69024396	      4.32694224
      3.77500000	     -9.18315687	      6.33508076	     -5.59312402	     -1.11718462	     -0.04435977	     -0.31576784	      1.25358719	     -9.73470883	     -3.16299779	    -44.15379099	    -23.23396537	     23.54091345	     34.99482827	     35.58247516	      6.45996097	      0.14984144	    -26.62092220	     -2.93855024	      2.95418500	    -13.15438679	     11.61930365	     -8.19279500	      4.41152247
      3.78000000	     -9.37161268	      6.77500441	     -5.60970966	     -1.11048241	     -0.04425969	     -0.31634171	      2.32618131	    -10.38348457	     -3.12576457	    -45.81181079	    -24.72628473	     22.92620710	     34.18279510	     35.38942466	      7.05093357	      0.30606415	    -26.68836891	     -2.68730438	      2.32730989	    -13.03223044	     11.91210992	     -8.64902047	      4.51280324
      3.78500000	     -9.44283555	      7.24089836	     -5.57273896	     -1.10377738	     -0.04398439	     -0.31689120	      3.27266284	    -11.07687241	     -3.21624186	    -47.42691511	    -26.12381024	     22.01336842	     33.47357010	     35.04888993	      7.67337230	      0.32713931	    -26.71255072	     -2.29652895	      2.00477204	    -12.93330339	     12.07735543	     -9.16778238	      4.51016139
      3.79000000	     -9.72014616	      7.65582714	     -5.53919816	     -1.09728856	     -0.04384876	     -0.31745833	      4.53704075	    -11.65346013	     -3.15824495	    -49.18370189	    -27.02326803	     21.17587315	     31.76634920	     34.92516959	      8.23449283	      0.47553222	    -26.72836436	     -1.93601040	      1.56332101	    -13.07267854	     12.44164554	     -9.59722841	      4.55045830
      3.79500000	     -9.79923088	      8.04932742	     -5.55058130	     -1.09076837	     -0.04336465	     -0.31792796	      5.57610040	    -12.20587238	     -3.10332861	    -50.76821405	    -28.03630181	     19.92120718	     30.80347211	     34.53267903	      8.76760690	      0.56129238	    -26.65434745	     -1.52041312	      1.19918870	    -13.19423741	     12.60278020	    -10.01511573	      4.62129264
      3.80000000	     -9.99729005	      8.43909897	     -5.48014659	     -1.08428260	     -0.04299302	     -0.31847821	      6.77175391	    -12.75080241	     -3.12238041	    -52.42702669	    -28.50606715	     18.73298463	     29.24455643	     34.25844763	      9.30326476	      0.62623409	    -26.57075547	     -0.97377293	      1.04613866	    -13.56995493	     12.88631171	    -10.42812854	      4.57117526
      3.80500000	    -10.10912440	      8.79034486	     -5.44757399	     -1.07782209	     -0.04241237	     -0.31895279	      7.88276497	    -13.22918728	     -3.08805206	    -53.97692903	    -28.88551907	     17.31732567	     28.06000160	     33.84943183	      9.79104254	      0.69609571	    -26.41832664	     -0.43725294	      0.89475895	    -13.93441318	     13.07621018	    -10.80294566	      4.55759908
      3.81000000	    -10.11401765	      9.16037788	     -5.41307788	     -1.07127691	     -0.04164383	     -0.31941514	      8.85632618	    -13.73696190	     -3.07252685	    -55.38424668	    -29.20011087	     15.77210622	     27.61217753	     33.27780556	     10.30104115	      0.70833679	    -26.15970734	     -0.03520022	      0.74268987	    -13.97068369	     13.16407859	    -11.21098161	      4.51717444
